#!OML:ASF F:\VICON\USERDATA\INSTALL\Justin_Nancy\Justin_Nancy.ASF
:FULLY-SPECIFIED
:DEGREES
48
root 12.6637 17.5913 -19.3033 -1.00577 -0.0510266 3.41628
lowerback 7.02151 -0.684113 -3.96063
upperback 0.728695 -1.16921 1.44095
thorax -3.07454 -0.525084 3.83286
lowerneck -16.2351 -3.14772 -9.3502
upperneck 22.0976 -3.11884 4.98533
head 9.94041 -1.66386 2.89965
rclavicle -1.04362e-014 7.95139e-015
rhumerus -31.5886 -17.4361 -77.8149
rradius 28.1429
rwrist 10.1781
rhand -11.2645 11.4703
rfingers 7.12502
rthumb 14.7657 -17.9837
lclavicle -1.04362e-014 7.95139e-015
lhumerus -28.1877 11.943 84.0478
lradius 23.4771
lwrist -12.2697
lhand -13.3654 28.16
lfingers 7.12502
lthumb 12.7409 57.7513
rfemur -22.8227 -1.58842 16.8249
rtibia 69.6121
rfoot -0.883448 -4.80943
rtoes 2.94639
lfemur -9.03332 1.46463 -28.4162
ltibia 22.8618
lfoot -10.7743 -6.27586
ltoes 7.80618
49
root 12.6757 17.5619 -19.1743 -1.0402 0.0991411 3.50549
lowerback 7.14044 -0.893499 -4.16129
upperback 0.999931 -1.45967 1.6099
thorax -2.82248 -0.678295 4.14751
lowerneck -17.4369 -3.17454 -9.58192
upperneck 22.2464 -2.93152 4.83169
head 10.209 -1.60269 2.90574
rclavicle 5.86415e-015 -7.95139e-016
rhumerus -30.8723 -17.1256 -77.9078
rradius 28.0242
rwrist 9.76472
rhand -11.733 11.4301
rfingers 7.12502
rthumb 14.3143 -18.0565
lclavicle 5.86415e-015 -7.95139e-016
lhumerus -27.3764 12.0947 84.3425
lradius 23.9221
lwrist -11.9235
lhand -13.7306 32.2564
lfingers 7.12502
lthumb 12.3888 61.8693
rfemur -23.7208 -1.58869 16.8122
rtibia 69.1422
rfoot -2.17506 -4.73479
rtoes 3.75605
lfemur -8.75131 1.54742 -28.5578
ltibia 23.352
lfoot -11.3974 -6.39767
ltoes 7.77769
50
root 12.691 17.5446 -19.0455 -1.05928 0.365893 3.56262
lowerback 7.30139 -0.974286 -4.29597
upperback 0.523931 -1.59061 1.59018
thorax -3.39055 -0.717242 4.22875
lowerneck -15.6791 -2.98029 -9.29192
upperneck 21.7796 -2.88255 4.71578
head 9.69968 -1.58238 2.82412
rclavicle -8.44835e-016 -7.15625e-015
rhumerus -32.3073 -16.8912 -77.6228
rradius 28.1739
rwrist 8.36773
rhand -12.5177 12.4329
rfingers 7.12502
rthumb 13.5581 -17.1057
lclavicle -8.44835e-016 -7.15625e-015
lhumerus -27.9214 11.3319 84.2526
lradius 24.1348
lwrist -11.6247
lhand -13.9119 37.013
lfingers 7.12502
lthumb 12.2141 66.6364
rfemur -24.583 -1.75363 16.828
rtibia 68.4526
rfoot -3.31421 -4.69445
rtoes 3.35907
lfemur -8.49621 1.42956 -28.6815
ltibia 23.8751
lfoot -12.0553 -6.4363
ltoes 7.76713
51
root 12.7002 17.5347 -18.9218 -1.09458 0.677636 3.71279
lowerback 7.28303 -1.08846 -4.51132
upperback 0.513082 -1.76157 1.53856
thorax -3.369 -0.799849 4.31255
lowerneck -15.3909 -2.93805 -9.23027
upperneck 21.7886 -2.89796 4.83306
head 9.64965 -1.57498 2.85484
rclavicle 1.32689e-014 1.66979e-014
rhumerus -32.6862 -16.979 -77.6561
rradius 28.7241
rwrist 8.44598
rhand -11.6785 10.7243
rfingers 7.12502
rthumb 14.3668 -18.7585
lclavicle 1.32689e-014 1.66979e-014
lhumerus -27.4997 10.8027 84.246
lradius 24.1549
lwrist -11.2496
lhand -14.1734 34.3993
lfingers 7.12502
lthumb 11.9619 64.0375
rfemur -25.365 -1.91741 16.7845
rtibia 67.6245
rfoot -4.44902 -4.75907
rtoes 1.45613
lfemur -8.22909 1.51822 -28.8646
ltibia 24.3598
lfoot -12.7102 -6.66989
ltoes 7.78004
52
root 12.7107 17.508 -18.8024 -1.13308 0.866375 3.89096
lowerback 7.38981 -1.20365 -4.75401
upperback 0.549483 -1.93918 1.53894
thorax -3.36399 -0.885562 4.46984
lowerneck -15.5083 -2.97018 -9.36257
upperneck 21.9283 -2.92068 4.91572
head 9.72649 -1.58817 2.90462
rclavicle -5.1684e-015 -6.36111e-015
rhumerus -32.6923 -17.1075 -77.5743
rradius 28.7163
rwrist 8.41933
rhand -11.1729 10.8608
rfingers 7.12502
rthumb 14.8539 -18.5867
lclavicle -5.1684e-015 -6.36111e-015
lhumerus -27.2963 10.2274 84.3861
lradius 24.5497
lwrist -10.2315
lhand -15.8773 21.2786
lfingers 7.12502
lthumb 10.3185 51.0055
rfemur -26.1703 -1.97025 16.715
rtibia 66.67
rfoot -5.51344 -4.78936
rtoes -1.68204
lfemur -8.00133 1.69901 -29.0892
ltibia 24.8308
lfoot -13.2451 -6.91362
ltoes 7.97973
53
root 12.7233 17.4784 -18.6787 -1.06809 0.996944 4.08616
lowerback 7.49939 -1.24248 -4.94756
upperback 0.578851 -2.01328 1.4948
thorax -3.38155 -0.919916 4.54344
lowerneck -15.7299 -3.07351 -9.14771
upperneck 21.82 -3.04667 4.70935
head 9.73337 -1.64751 2.77619
rclavicle -2.78299e-015 3.97569e-015
rhumerus -32.6789 -17.4841 -77.4908
rradius 28.6912
rwrist 8.41179
rhand -10.9711 11.2171
rfingers 7.12502
rthumb 15.0484 -18.216
lclavicle -2.78299e-015 3.97569e-015
lhumerus -26.9867 9.25901 84.6597
lradius 25.1804
lwrist -9.07876
lhand -15.1247 24.8692
lfingers 7.12502
lthumb 11.0444 54.5586
rfemur -27.0207 -1.94941 16.5926
rtibia 65.5399
rfoot -6.73554 -4.64596
rtoes -4.70641
lfemur -7.82988 1.85126 -29.3548
ltibia 25.2783
lfoot -13.838 -6.92473
ltoes 7.57957
54
root 12.733 17.4612 -18.5514 -0.978946 1.11623 4.07813
lowerback 7.52403 -1.27475 -4.9813
upperback 0.678697 -2.05739 1.52509
thorax -3.28402 -0.946452 4.59698
lowerneck -16.2418 -3.18294 -9.15157
upperneck 21.7926 -3.17259 4.81156
head 9.83106 -1.68788 2.79284
rclavicle 1.84373e-014 -1.11319e-014
rhumerus -32.5699 -17.6761 -77.5148
rradius 28.7479
rwrist 8.26294
rhand -11.4819 11.3764
rfingers 7.12502
rthumb 14.5562 -18.0929
lclavicle 1.84373e-014 -1.11319e-014
lhumerus -26.249 8.99301 84.7669
lradius 25.5194
lwrist -9.34518
lhand -14.2288 26.9971
lfingers 7.12502
lthumb 11.9085 56.6384
rfemur -27.7655 -1.82715 16.7278
rtibia 64.2052
rfoot -6.6627 -4.85153
rtoes -1.09376
lfemur -7.62386 2.09812 -29.3683
ltibia 25.713
lfoot -14.5022 -7.03861
ltoes 7.1317
55
root 12.7448 17.4483 -18.4202 -0.885682 1.22785 4.0761
lowerback 7.47003 -1.3928 -5.05636
upperback 0.635819 -2.21595 1.61114
thorax -3.27393 -1.02331 4.74343
lowerneck -16.0154 -3.08996 -9.23979
upperneck 21.5663 -3.05951 4.90817
head 9.70227 -1.63154 2.85522
rclavicle 3.39922e-014 -1.66979e-014
rhumerus -32.7057 -17.4787 -77.4725
rradius 28.7802
rwrist 8.30131
rhand -12.0732 11.453
rfingers 7.12502
rthumb 13.9865 -18.0565
lclavicle 3.39922e-014 -1.66979e-014
lhumerus -25.9731 8.8456 84.7846
lradius 25.9072
lwrist -9.76189
lhand -14.3064 26.2476
lfingers 7.12502
lthumb 11.8336 55.8932
rfemur -28.4182 -1.68144 16.8368
rtibia 62.6816
rfoot -6.78459 -5.01563
rtoes 0.90456
lfemur -7.36029 2.22353 -29.3847
ltibia 26.0189
lfoot -15.0473 -7.23448
ltoes 7.83573
56
root 12.7591 17.43 -18.2935 -0.800162 1.33795 4.22307
lowerback 7.45126 -1.47761 -5.18243
upperback 0.550407 -2.34056 1.59591
thorax -3.33336 -1.07978 4.81181
lowerneck -15.0494 -2.90182 -8.54954
upperneck 20.5353 -2.8675 4.16084
head 9.12552 -1.56523 2.49663
rclavicle 2.30093e-014 -6.36111e-015
rhumerus -32.9408 -17.4913 -77.4007
rradius 28.8405
rwrist 8.35884
rhand -12.0956 11.0727
rfingers 7.12502
rthumb 13.9648 -18.4383
lclavicle 2.30093e-014 -6.36111e-015
lhumerus -25.6783 8.34834 84.8132
lradius 26.0591
lwrist -9.79974
lhand -14.4436 24.6634
lfingers 7.12502
lthumb 11.7013 54.3166
rfemur -29.0465 -1.60046 16.7711
rtibia 61.0342
rfoot -6.92288 -5.20343
rtoes 1.4667
lfemur -7.0199 2.13038 -29.5891
ltibia 26.1168
lfoot -15.4268 -7.25262
ltoes 8.13935
57
root 12.771 17.412 -18.1632 -0.698736 1.43861 4.44056
lowerback 7.34031 -1.51729 -5.41556
upperback 0.585915 -2.40856 1.53113
thorax -3.21938 -1.1154 4.8765
lowerneck -15.3116 -3.30725 -9.3196
upperneck 21.5468 -3.39484 4.82881
head 9.59178 -1.81143 2.79972
rclavicle 2.127e-014 0
rhumerus -33.1127 -17.5745 -77.4242
rradius 29.0536
rwrist 8.44725
rhand -12.0972 10.9187
rfingers 7.12502
rthumb 13.9633 -18.5924
lclavicle 2.127e-014 0
lhumerus -24.9892 8.00775 84.8225
lradius 25.998
lwrist -9.77864
lhand -14.273 24.3102
lfingers 7.12502
lthumb 11.8659 53.954
rfemur -29.5661 -1.48682 16.6184
rtibia 59.2554
rfoot -7.40118 -5.41755
rtoes 0.414012
lfemur -6.55308 2.08554 -29.8723
ltibia 26.0015
lfoot -15.7456 -7.19593
ltoes 7.79999
58
root 12.7813 17.4078 -18.0336 -0.56413 1.51502 4.59974
lowerback 7.29044 -1.55517 -5.62887
upperback 0.589627 -2.47401 1.52051
thorax -3.1711 -1.14694 4.98973
lowerneck -15.7938 -3.4847 -9.463
upperneck 22.0469 -3.59127 4.91299
head 9.88011 -1.90604 2.82986
rclavicle 1.14301e-015 -1.98785e-014
rhumerus -33.2428 -17.4285 -77.4604
rradius 29.2474
rwrist 8.33839
rhand -11.6787 11.712
rfingers 7.12502
rthumb 14.3666 -17.7709
lclavicle 1.14301e-015 -1.98785e-014
lhumerus -24.5886 7.56985 84.9218
lradius 26.3139
lwrist -9.55936
lhand -14.6869 24.4644
lfingers 7.12502
lthumb 11.4668 54.1308
rfemur -30.0431 -1.21093 16.5172
rtibia 57.2778
rfoot -8.17 -5.78326
rtoes -1.85495
lfemur -6.19978 2.01275 -30.0745
ltibia 25.8498
lfoot -15.7712 -7.25725
ltoes 9.15859
59
root 12.7922 17.4064 -17.9096 -0.392918 1.70815 4.57786
lowerback 7.30753 -1.62441 -5.59563
upperback 0.551387 -2.56513 1.52344
thorax -3.21031 -1.19041 4.98378
lowerneck -16.233 -3.54888 -9.25643
upperneck 22.2754 -3.67624 4.82194
head 10.0451 -1.93567 2.75085
rclavicle 7.55382e-015 -1.66979e-014
rhumerus -33.3068 -17.4342 -77.5097
rradius 29.1652
rwrist 8.23131
rhand -11.5012 12.7926
rfingers 7.12502
rthumb 14.5376 -16.678
lclavicle 7.55382e-015 -1.66979e-014
lhumerus -24.3308 7.04703 84.9664
lradius 26.8285
lwrist -9.23561
lhand -14.9289 24.0512
lfingers 7.12502
lthumb 11.2334 53.7305
rfemur -30.4675 -1.08637 16.6327
rtibia 55.1087
rfoot -8.40311 -6.36946
rtoes -4.95226
lfemur -6.06995 1.83253 -30.0687
ltibia 25.727
lfoot -15.5464 -7.69544
ltoes 11.5753
60
root 12.801 17.4075 -17.7836 -0.222463 1.89427 4.56784
lowerback 7.32744 -1.71676 -5.5899
upperback 0.439876 -2.69054 1.54042
thorax -3.32139 -1.2462 5.01355
lowerneck -16.3123 -3.49434 -9.38468
upperneck 22.4858 -3.64035 5.12733
head 10.1402 -1.89693 2.88893
rclavicle 3.62782e-014 -1.03368e-014
rhumerus -33.3883 -17.5433 -77.4392
rradius 28.9969
rwrist 8.73695
rhand -12.1923 13.4203
rfingers 7.12502
rthumb 13.8717 -16.097
lclavicle 3.62782e-014 -1.03368e-014
lhumerus -24.0346 6.81397 84.9332
lradius 27.1391
lwrist -9.06299
lhand -14.7795 24.028
lfingers 7.12502
lthumb 11.3774 53.6993
rfemur -30.6389 -0.844443 16.6678
rtibia 52.747
rfoot -8.48958 -6.88536
rtoes -5.24918
lfemur -5.39632 1.8848 -30.062
ltibia 25.5084
lfoot -16.3635 -7.6115
ltoes 9.26425
